<?xml version="1.0" encoding="utf-8"?>
<!-- Generator: Adobe Illustrator 16.0.0, SVG Export Plug-In . SVG Version: 6.00 Build 0)  -->
<!DOCTYPE svg PUBLIC "-//W3C//DTD SVG 1.1//EN" "http://www.w3.org/Graphics/SVG/1.1/DTD/svg11.dtd">
<svg version="1.1" id="Capa_1" xmlns="http://www.w3.org/2000/svg" xmlns:xlink="http://www.w3.org/1999/xlink" x="0px" y="0px"
	 width="1280px" height="357.333px" viewBox="0 0 1280 357.333" enable-background="new 0 0 1280 357.333" xml:space="preserve">
<g>
	<path d="M316.137,291.605c-2.342,2.454-5.327,5.243-8.949,8.364c-3.625,3.123-7.695,6.272-12.211,9.451
		c-4.517,3.178-9.396,6.272-14.637,9.283c-5.243,3.011-10.596,5.688-16.058,8.029c-5.465,2.342-10.957,4.208-16.477,5.604
		c-5.521,1.394-10.847,2.091-15.975,2.091c-3.57,0-7.167-0.614-10.789-1.84c-3.625-1.229-6.916-3.486-9.869-6.774
		c-2.956-3.288-5.382-7.833-7.276-13.633c-1.897-5.797-2.844-13.324-2.844-22.582c0-3.902,0.277-8.113,0.836-12.63
		c0.557-4.516,1.281-9.394,2.174-14.636c-6.247,12.603-13.298,23.727-21.16,33.371c-7.862,9.646-16.226,17.73-25.091,24.255
		c-8.865,6.523-18.04,11.458-27.517,14.804c-9.479,3.346-18.959,5.019-28.437,5.019c-10.371,0-20.214-1.814-29.524-5.437
		c-9.313-3.626-17.538-9.033-24.673-16.226c-7.138-7.193-12.796-16.143-16.978-26.848c-4.182-10.706-6.273-23.194-6.273-37.47
		c0-10.815,1.254-22.135,3.764-33.957c2.509-11.819,6.161-23.753,10.957-35.797c4.793-12.043,10.593-23.975,17.396-35.796
		c6.801-11.819,14.553-23.055,23.251-33.706c8.698-10.648,18.204-20.517,28.52-29.607c10.313-9.088,21.328-16.95,33.037-23.586
		c11.709-6.633,24.03-11.848,36.968-15.64c12.935-3.79,26.372-5.688,40.313-5.688c3.79,0,6.829,0.309,9.116,0.92
		c2.284,0.614,4.015,1.396,5.186,2.342c1.171,0.949,1.924,1.923,2.258,2.927c0.334,1.003,0.502,1.897,0.502,2.676
		c0,0.56-0.029,1.061-0.084,1.505c-0.057,0.447-0.083,0.782-0.083,1.004v0.836c3.011,1.785,6.077,2.872,9.2,3.262
		c3.121,0.392,6.189,0.727,9.2,1.003c3.011,0.28,5.854,0.865,8.531,1.757c2.676,0.894,5.018,2.65,7.025,5.269
		c2.007,2.622,3.597,6.44,4.768,11.458c1.171,5.019,1.756,11.822,1.756,20.408c0,6.691-0.643,14.218-1.924,22.582
		c-1.283,8.364-2.985,17.12-5.102,26.262c-2.12,9.145-4.49,18.4-7.109,27.768c-2.622,9.367-5.243,18.458-7.862,27.266
		c-2.622,8.811-5.159,17.12-7.611,24.924c-2.455,7.807-4.517,14.61-6.189,20.408c-0.334,4.908-0.614,9.479-0.836,13.717
		c-0.225,4.239-0.334,8.643-0.334,13.215c0,3.569,0.083,6.497,0.251,8.781c0.167,2.287,0.473,4.099,0.92,5.437
		c0.444,1.338,1.059,2.258,1.84,2.76c0.779,0.502,1.782,0.753,3.011,0.753c2.229,0,5.044-0.585,8.447-1.756
		c3.4-1.171,7.026-2.677,10.873-4.517s7.862-3.902,12.043-6.189c4.182-2.284,8.197-4.571,12.044-6.858
		c3.847-2.284,7.444-4.375,10.789-6.272c3.346-1.895,6.132-3.455,8.364-4.684L316.137,291.605z M237.016,75.319
		c-3.905-1.114-7.945-1.924-12.127-2.426c-4.182-0.502-8.225-0.752-12.127-0.752c-9.033,0-17.956,1.73-26.764,5.185
		c-8.811,3.458-17.371,8.17-25.677,14.135c-8.309,5.967-16.226,12.993-23.753,21.077c-7.527,8.087-14.553,16.785-21.077,26.095
		c-6.524,9.313-12.407,18.986-17.647,29.022c-5.243,10.037-9.759,20.047-13.549,30.026c-3.792,9.981-6.691,19.683-8.698,29.105
		c-2.007,9.425-3.011,18.095-3.011,26.011c0,15.724,3.149,27.909,9.451,36.55c6.299,8.644,16.084,12.964,29.357,12.964
		c8.251,0,16.084-1.728,23.502-5.186c7.415-3.455,14.302-8.001,20.659-13.633c6.356-5.63,12.182-11.986,17.48-19.069
		c5.295-7.081,9.924-14.245,13.884-21.495c3.957-7.248,7.219-14.245,9.786-20.993c2.564-6.746,4.404-12.572,5.52-17.48
		L237.016,75.319z"/>
	<path d="M589.129,291.605c-2.342,2.454-5.327,5.243-8.949,8.364c-3.625,3.123-7.695,6.272-12.211,9.451
		c-4.517,3.178-9.396,6.272-14.637,9.283c-5.243,3.011-10.596,5.688-16.058,8.029c-5.465,2.342-10.957,4.208-16.477,5.604
		c-5.521,1.394-10.847,2.091-15.975,2.091c-3.57,0-7.167-0.614-10.789-1.84c-3.625-1.229-6.916-3.486-9.869-6.774
		c-2.956-3.288-5.382-7.833-7.276-13.633c-1.897-5.797-2.844-13.324-2.844-22.582c0-3.902,0.277-8.113,0.836-12.63
		c0.557-4.516,1.281-9.394,2.174-14.636c-6.247,12.603-13.298,23.727-21.16,33.371c-7.862,9.646-16.226,17.73-25.091,24.255
		c-8.865,6.523-18.04,11.458-27.517,14.804c-9.479,3.346-18.959,5.019-28.437,5.019c-10.371,0-20.214-1.814-29.524-5.437
		c-9.313-3.626-17.538-9.033-24.673-16.226c-7.138-7.193-12.796-16.143-16.978-26.848c-4.182-10.706-6.273-23.194-6.273-37.47
		c0-10.815,1.254-22.135,3.764-33.957c2.509-11.819,6.161-23.753,10.957-35.797c4.793-12.043,10.593-23.975,17.396-35.796
		c6.801-11.819,14.553-23.055,23.251-33.706c8.698-10.648,18.204-20.517,28.52-29.607c10.313-9.088,21.328-16.95,33.037-23.586
		c11.709-6.633,24.03-11.848,36.968-15.64c12.935-3.79,26.372-5.688,40.313-5.688c3.79,0,6.829,0.309,9.116,0.92
		c2.284,0.614,4.015,1.396,5.186,2.342c1.171,0.949,1.924,1.923,2.258,2.927c0.334,1.003,0.502,1.897,0.502,2.676
		c0,0.56-0.029,1.061-0.084,1.505c-0.057,0.447-0.083,0.782-0.083,1.004v0.836c3.011,1.785,6.077,2.872,9.2,3.262
		c3.121,0.392,6.189,0.727,9.2,1.003c3.011,0.28,5.854,0.865,8.531,1.757c2.676,0.894,5.018,2.65,7.025,5.269
		c2.007,2.622,3.597,6.44,4.768,11.458c1.171,5.019,1.756,11.822,1.756,20.408c0,6.691-0.643,14.218-1.924,22.582
		c-1.283,8.364-2.985,17.12-5.102,26.262c-2.12,9.145-4.49,18.4-7.109,27.768c-2.622,9.367-5.243,18.458-7.862,27.266
		c-2.622,8.811-5.159,17.12-7.611,24.924c-2.455,7.807-4.517,14.61-6.189,20.408c-0.334,4.908-0.614,9.479-0.836,13.717
		c-0.225,4.239-0.334,8.643-0.334,13.215c0,3.569,0.083,6.497,0.251,8.781c0.167,2.287,0.473,4.099,0.92,5.437
		c0.444,1.338,1.059,2.258,1.84,2.76c0.779,0.502,1.782,0.753,3.011,0.753c2.229,0,5.044-0.585,8.447-1.756
		c3.4-1.171,7.026-2.677,10.873-4.517s7.862-3.902,12.043-6.189c4.182-2.284,8.197-4.571,12.044-6.858
		c3.847-2.284,7.444-4.375,10.789-6.272c3.346-1.895,6.132-3.455,8.364-4.684L589.129,291.605z M510.008,75.319
		c-3.905-1.114-7.945-1.924-12.127-2.426c-4.182-0.502-8.225-0.752-12.127-0.752c-9.033,0-17.956,1.73-26.764,5.185
		c-8.811,3.458-17.371,8.17-25.677,14.135c-8.309,5.967-16.226,12.993-23.753,21.077c-7.527,8.087-14.553,16.785-21.077,26.095
		c-6.524,9.313-12.407,18.986-17.647,29.022c-5.243,10.037-9.759,20.047-13.549,30.026c-3.792,9.981-6.691,19.683-8.698,29.105
		c-2.007,9.425-3.011,18.095-3.011,26.011c0,15.724,3.149,27.909,9.451,36.55c6.299,8.644,16.084,12.964,29.357,12.964
		c8.251,0,16.084-1.728,23.502-5.186c7.415-3.455,14.302-8.001,20.659-13.633c6.356-5.63,12.182-11.986,17.48-19.069
		c5.295-7.081,9.924-14.245,13.884-21.495c3.957-7.248,7.219-14.245,9.786-20.993c2.564-6.746,4.404-12.572,5.52-17.48
		L510.008,75.319z"/>
	<path d="M639.98,297.794c0-1.448,0.109-3.513,0.334-6.189c0.222-2.676,0.557-5.742,1.003-9.2c0.444-3.455,0.945-7.108,1.506-10.956
		c0.557-3.848,1.113-7.666,1.672-11.458c1.227-8.921,2.732-18.51,4.518-28.771h-2.51c-1.338,1.672-2.873,4.182-4.6,7.527
		c-1.73,3.345-4.156,8.254-7.277,14.72c-3.123,6.469-7.109,14.861-11.96,25.175c-4.851,10.316-11.124,23.226-18.818,38.725
		c-2.232,4.573-4.825,7.668-7.778,9.283c-2.956,1.618-6.218,2.426-9.786,2.426c-4.574,0-8.254-0.975-11.04-2.928
		c-2.789-1.949-4.935-4.571-6.44-7.861c-1.506-3.288-2.509-7.025-3.011-11.208c-0.502-4.182-0.752-8.502-0.752-12.963
		c0-4.571,0.277-9.979,0.836-16.226c0.557-6.244,1.281-12.823,2.175-19.739c0.891-6.913,1.924-13.967,3.095-21.16
		c1.171-7.193,2.396-14.078,3.68-20.659c1.281-6.579,2.593-12.601,3.931-18.065c1.338-5.463,2.564-9.924,3.68-13.382
		c1.113-3.567,2.174-6.411,3.178-8.531c1.003-2.117,2.146-3.764,3.429-4.935c1.28-1.171,2.814-1.95,4.6-2.342
		c1.783-0.39,4.07-0.585,6.858-0.585c4.237,0,7.554,0.141,9.953,0.418c2.396,0.28,4.182,0.949,5.353,2.007
		c1.171,1.061,1.866,2.593,2.091,4.6c0.222,2.007,0.334,4.741,0.334,8.196c0,1.897-0.083,4.072-0.25,6.524
		c-0.167,2.454-0.418,5.076-0.753,7.862c-0.334,2.789-0.698,5.661-1.087,8.615c-0.392,2.956-0.81,5.829-1.254,8.615
		c-1.004,6.581-2.065,13.382-3.178,20.407l1.84,2.007c0.222-0.334,1.422-2.452,3.597-6.356c2.174-3.902,4.851-8.586,8.029-14.051
		c3.178-5.463,6.607-11.179,10.288-17.146c3.68-5.964,7.192-11.233,10.538-15.807c3.232-4.571,6.662-8.364,10.287-11.375
		c3.623-3.011,7.945-4.516,12.965-4.516c4.684,0,8.697,1.367,12.043,4.098c3.346,2.734,5.018,6.607,5.018,11.625
		c0,4.349-0.279,8.476-0.836,12.378c-0.559,3.905-1.254,7.694-2.09,11.375c-0.838,3.68-1.701,7.276-2.594,10.79
		c-0.893,3.513-1.73,7.109-2.508,10.789c-0.561,2.566-0.895,4.182-1.004,4.851c-0.113,0.669-0.168,1.116-0.168,1.338l1.84,2.007
		c0.223-0.334,1.506-2.425,3.848-6.273c2.342-3.847,5.211-8.502,8.615-13.967c3.4-5.462,7.025-11.208,10.873-17.229
		c3.846-6.022,7.443-11.317,10.789-15.891c3.232-4.459,6.465-8.223,9.701-11.291c3.232-3.066,7.193-4.6,11.877-4.6
		c5.24,0,9.672,1.367,13.299,4.098c3.621,2.734,5.436,6.607,5.436,11.625c0,7.695-0.393,15-1.172,21.913
		c-0.781,6.916-1.672,13.716-2.676,20.407c-1.004,6.691-1.896,13.466-2.676,20.324c-0.781,6.858-1.172,14.134-1.172,21.83
		c0,6.021,0.779,10.93,2.342,14.72c1.561,3.792,3.455,5.688,5.688,5.688c2.342,0,4.793-0.502,7.361-1.506
		c2.563-1.003,5.186-2.284,7.861-3.847c2.676-1.561,5.295-3.372,7.861-5.437c2.564-2.063,5.02-4.208,7.361-6.44
		c5.461-5.128,10.871-10.928,16.225-17.396l2.844,39.477c-4.908,3.905-9.785,7.946-14.637,12.128s-9.98,7.974-15.389,11.374
		c-5.41,3.403-11.35,6.189-17.814,8.364c-6.469,2.175-13.775,3.262-21.914,3.262c-4.014,0-7.389-1.31-10.119-3.931
		c-2.734-2.619-4.936-6.273-6.607-10.957c-1.674-4.684-2.873-10.203-3.598-16.56c-0.727-6.356-1.086-13.27-1.086-20.742
		c0-7.025,0.25-14.47,0.752-22.331c0.502-7.862,1.197-15.808,2.092-23.837h-2.51l-33.957,86.48c-2.9,4.685-6.135,7.836-9.701,9.451
		c-3.57,1.618-7.695,2.426-12.379,2.426c-3.57,0-6.414-0.975-8.531-2.928c-2.119-1.949-3.764-4.458-4.934-7.527
		c-1.172-3.065-1.953-6.439-2.342-10.12C640.174,304.82,639.98,301.252,639.98,297.794z"/>
	<path d="M846.397,329.075c-10.483,0-19.655-1.895-27.517-5.688c-7.862-3.79-14.415-8.892-19.655-15.306
		c-5.243-6.411-9.174-13.826-11.793-22.247c-2.621-8.419-3.931-17.256-3.931-26.514c0-6.244,0.611-12.851,1.84-19.822
		c1.226-6.968,3.095-13.8,5.604-20.491c2.51-6.691,5.659-13.073,9.451-19.153c3.79-6.077,8.223-11.43,13.299-16.058
		c5.073-4.626,10.76-8.307,17.062-11.041c6.299-2.731,13.299-4.098,20.993-4.098c6.244,0,12.044,1.004,17.396,3.011
		s10.008,4.825,13.968,8.447c3.957,3.625,7.052,8.003,9.283,13.131c2.229,5.131,3.346,10.873,3.346,17.229
		c0,6.916-1.701,13.829-5.102,20.742c-3.403,6.916-8.113,13.439-14.135,19.571c-6.022,6.134-13.188,11.599-21.495,16.393
		c-8.309,4.796-17.313,8.531-27.015,11.207c1.673,3.012,3.316,5.521,4.935,7.527c1.615,2.008,3.262,3.57,4.935,4.684
		c1.673,1.116,3.429,1.898,5.27,2.343c1.84,0.446,3.818,0.669,5.938,0.669c6.691,0,13.743-1.339,21.16-4.015
		c7.415-2.677,14.637-6.022,21.662-10.037c7.026-4.015,13.659-8.39,19.906-13.131c6.244-4.738,11.542-9.226,15.891-13.466
		l21.579,22.415c-9.814,10.149-20.24,19.127-31.28,26.932c-4.797,3.346-9.953,6.636-15.474,9.869
		c-5.52,3.235-11.319,6.105-17.396,8.614c-6.079,2.51-12.378,4.517-18.901,6.022C859.695,328.322,853.088,329.075,846.397,329.075z
		 M824.149,250.456c4.015,0,8.391-1.03,13.132-3.095c4.738-2.062,9.143-4.709,13.214-7.945c4.07-3.233,7.499-6.746,10.288-10.538
		c2.786-3.79,4.182-7.47,4.182-11.041c0-5.018-0.92-9.143-2.76-12.378c-1.841-3.233-4.099-4.851-6.775-4.851
		c-4.796,0-8.894,0.894-12.294,2.676c-3.403,1.785-6.247,4.098-8.531,6.942c-2.287,2.844-4.127,6.08-5.521,9.702
		c-1.396,3.625-2.454,7.276-3.178,10.956c-0.727,3.68-1.2,7.25-1.422,10.706C824.26,245.048,824.149,248.004,824.149,250.456z"/>
	<path d="M958.807,329.075c-6.022,0-11.626-2.647-16.812-7.945c-5.186-5.296-9.702-12.404-13.549-21.328
		c-3.848-8.92-6.858-19.263-9.033-31.029c-2.175-11.764-3.262-24.113-3.262-37.051c0-9.924,0.724-20.713,2.175-32.368
		c1.447-11.651,3.567-23.669,6.356-36.047c2.786-12.378,6.105-24.812,9.952-37.302c3.848-12.488,8.196-24.477,13.048-35.964
		c4.851-11.484,10.12-22.219,15.808-32.2c5.687-9.979,11.651-18.677,17.898-26.095c6.243-7.415,12.768-13.241,19.57-17.48
		c6.801-4.237,13.717-6.356,20.742-6.356c4.794,0,8.753,1.087,11.877,3.262c3.12,2.174,5.575,5.047,7.36,8.614
		c1.782,3.57,3.036,7.611,3.764,12.127c0.724,4.517,1.087,9.117,1.087,13.8c0,10.483-1.2,21.16-3.597,32.033
		c-2.399,10.873-5.632,21.803-9.702,32.786c-4.071,10.985-8.781,21.997-14.135,33.037c-5.353,11.04-10.93,21.997-16.727,32.869
		c-5.8,10.873-11.626,21.579-17.48,32.117c-5.854,10.539-11.349,20.826-16.477,30.862c-0.56,1.116-1.145,2.566-1.757,4.349
		c-0.614,1.785-1.199,3.709-1.756,5.771c-0.56,2.065-1.116,4.266-1.673,6.607c-0.56,2.342-1.004,4.629-1.338,6.858v2.342
		c0,2.901,0.306,5.716,0.92,8.447c0.611,2.733,1.364,5.186,2.258,7.36c0.892,2.174,1.84,3.904,2.844,5.186
		c1.004,1.283,1.95,1.923,2.844,1.923c2.117,0,4.542-0.444,7.276-1.338c2.731-0.892,5.63-2.091,8.698-3.597
		c3.065-1.505,6.215-3.232,9.451-5.186c3.233-1.949,6.356-3.931,9.367-5.938c7.025-4.684,14.386-10.092,22.08-16.226l13.717,35.127
		c-9.927,7.139-19.738,13.495-29.44,19.069c-4.239,2.342-8.614,4.658-13.131,6.942c-4.517,2.287-9.062,4.323-13.633,6.105
		c-4.574,1.785-9.033,3.207-13.382,4.266C966.668,328.546,962.596,329.075,958.807,329.075z M958.974,195.255
		c5.018-8.92,10.342-18.957,15.975-30.109c5.63-11.15,10.956-22.637,15.975-34.458c5.019-11.819,9.367-23.612,13.048-35.378
		c3.68-11.764,6.021-22.721,7.025-32.87c0-3.233-0.084-5.993-0.251-8.28c-0.167-2.284-0.698-3.429-1.589-3.429
		c-3.236,0-6.72,2.091-10.455,6.272c-3.737,4.182-7.473,9.843-11.207,16.979c-3.738,7.138-7.306,15.447-10.706,24.924
		c-3.403,9.48-6.44,19.571-9.116,30.277c-2.677,10.706-4.796,21.719-6.356,33.037C959.752,173.538,958.974,184.549,958.974,195.255z
		"/>
	<path d="M1119.39,293.445c-4.015,3.681-9.007,7.611-14.972,11.793c-5.967,4.183-12.406,8.029-19.319,11.542
		c-6.916,3.513-13.968,6.44-21.161,8.782c-7.192,2.342-14.024,3.513-20.49,3.513c-5.8,0-10.68-0.808-14.637-2.426
		c-3.96-1.615-7.167-3.873-9.618-6.774c-2.455-2.898-4.211-6.44-5.27-10.622c-1.062-4.182-1.589-8.781-1.589-13.8
		c0-7.025,0.808-15.193,2.425-24.506c1.615-9.31,3.597-18.957,5.938-28.938c2.342-9.979,4.822-19.932,7.444-29.858
		c2.618-9.924,4.935-19.069,6.941-27.433c0.779-2.898,2.342-5.379,4.684-7.444c2.342-2.062,4.989-3.735,7.945-5.018
		c2.954-1.281,6.022-2.229,9.2-2.844c3.179-0.612,6.049-0.92,8.615-0.92c4.684,0,7.861,0.865,9.534,2.593
		c1.673,1.73,2.51,4.043,2.51,6.942c0,2.454-0.56,5.996-1.673,10.622c-1.116,4.629-2.51,9.87-4.183,15.724
		c-1.672,5.854-3.457,12.156-5.353,18.902c-1.897,6.749-3.68,13.495-5.353,20.24c-1.673,6.749-3.068,13.327-4.182,19.739
		c-1.116,6.414-1.673,12.185-1.673,17.313c0,5.019,0.557,9.007,1.673,11.96c1.113,2.956,3.4,4.433,6.858,4.433
		c4.014,0,8.473-1.393,13.382-4.182c4.905-2.786,9.869-6.16,14.887-10.12c5.019-3.957,9.925-8.055,14.721-12.295
		c4.793-4.236,9.032-7.861,12.713-10.872V293.445z M1044.618,121.487c0-2.564,0.557-5.462,1.672-8.698
		c1.114-3.233,2.928-6.273,5.437-9.116c2.51-2.844,5.854-5.241,10.037-7.193c4.182-1.95,9.394-2.927,15.64-2.927
		c3.902,0,7.582,0.447,11.04,1.338c3.456,0.894,6.467,2.258,9.033,4.098c2.564,1.84,4.6,4.266,6.105,7.277
		c1.506,3.011,2.258,6.581,2.258,10.706c0,3.792-0.614,7.472-1.84,11.04c-1.229,3.57-3.178,6.749-5.854,9.535
		c-2.676,2.789-6.051,5.047-10.12,6.774c-4.072,1.73-8.949,2.593-14.637,2.593c-9.814,0-17.062-2.313-21.745-6.942
		C1046.96,135.345,1044.618,129.182,1044.618,121.487z"/>
	<path d="M1282.482,288.092c-2.567,3.57-5.996,7.752-10.288,12.546c-4.294,4.796-9.116,9.367-14.469,13.717
		c-5.354,4.349-11.098,8.028-17.229,11.04c-6.135,3.011-12.269,4.516-18.4,4.516c-7.36,0-13.494-2.367-18.4-7.108
		c-4.908-4.739-9.145-11.626-12.713-20.659c-2.676,3.124-5.967,6.302-9.869,9.535c-3.904,3.235-8.17,6.163-12.796,8.782
		c-4.629,2.621-9.451,4.767-14.47,6.439s-10.036,2.51-15.055,2.51c-5.353,0-10.567-1.088-15.64-3.263
		c-5.076-2.174-9.563-5.295-13.466-9.367c-3.905-4.069-7.025-9.032-9.367-14.887c-2.342-5.855-3.513-12.463-3.513-19.822
		c0-8.364,1.171-16.95,3.513-25.761c2.342-8.808,5.574-17.422,9.701-25.844c4.125-8.418,9.005-16.364,14.637-23.836
		c5.63-7.47,11.793-13.994,18.484-19.571c6.69-5.575,13.742-10.008,21.16-13.298c7.415-3.288,14.971-4.935,22.665-4.935
		c2.564,0,4.571,0.502,6.022,1.505c1.448,1.004,2.647,2.148,3.597,3.429c0.945,1.283,1.865,2.538,2.76,3.764
		c0.891,1.229,2.007,2.12,3.346,2.676c1.338,0.56,2.702,0.92,4.098,1.087c1.394,0.167,2.815,0.251,4.266,0.251
		c1.226,0,2.48-0.026,3.764-0.083c1.28-0.055,2.535-0.084,3.764-0.084c1.673,0,3.233,0.167,4.684,0.502
		c1.448,0.334,2.731,1.061,3.848,2.174c1.113,1.116,1.979,2.677,2.593,4.684c0.611,2.007,0.92,4.741,0.92,8.196
		c0,5.353-0.56,11.291-1.673,17.815c-1.116,6.523-2.342,13.214-3.68,20.073c-1.339,6.858-2.567,13.716-3.681,20.575
		c-1.116,6.858-1.673,13.355-1.673,19.487c0,5.243,0.474,9.342,1.422,12.295c0.946,2.956,2.982,4.433,6.105,4.433
		c2.342,0,4.794-0.585,7.36-1.756c2.564-1.171,5.157-2.703,7.778-4.601c2.619-1.895,5.24-4.04,7.862-6.439
		c2.618-2.397,5.102-4.878,7.443-7.444c5.463-6.021,10.982-12.822,16.561-20.407L1282.482,288.092z M1139.63,274.877
		c0,2.789,0.193,5.494,0.585,8.113c0.39,2.621,1.087,4.963,2.091,7.025c1.004,2.064,2.342,3.737,4.015,5.019
		c1.673,1.283,3.79,1.923,6.356,1.923c4.124,0,7.862-1.782,11.207-5.353c3.346-3.567,6.244-7.861,8.699-12.88
		c2.451-5.019,4.433-10.204,5.938-15.557c1.506-5.353,2.48-9.812,2.928-13.382l10.203-49.179c-4.573,0-9.032,1.145-13.382,3.429
		c-4.349,2.287-8.447,5.381-12.294,9.284c-3.848,3.905-7.39,8.364-10.622,13.382c-3.236,5.018-6.022,10.288-8.364,15.808
		s-4.155,11.068-5.437,16.644C1140.27,264.732,1139.63,269.972,1139.63,274.877z"/>
</g>
<g>
</g>
<g>
</g>
<g>
</g>
<g>
</g>
<g>
</g>
<g>
</g>
<g>
</g>
<g>
</g>
<g>
</g>
<g>
</g>
<g>
</g>
<g>
</g>
<g>
</g>
<g>
</g>
<g>
</g>
</svg>
