<?xml version="1.0" encoding="utf-8"?>
<!-- Generator: Adobe Illustrator 16.0.0, SVG Export Plug-In . SVG Version: 6.00 Build 0)  -->
<!DOCTYPE svg PUBLIC "-//W3C//DTD SVG 1.1//EN" "http://www.w3.org/Graphics/SVG/1.1/DTD/svg11.dtd">
<svg version="1.1" xmlns="http://www.w3.org/2000/svg" xmlns:xlink="http://www.w3.org/1999/xlink" x="0px" y="0px"
	 width="297.638px" height="141.732px" viewBox="0 0 297.638 141.732" enable-background="new 0 0 297.638 141.732"
	 xml:space="preserve">
<g id="Capa_2">
</g>
<g id="Capa_1">
	<g>
		<path d="M65.175,79.473c-0.767-0.066-1.608-0.214-2.524-0.444c-0.917-0.23-1.793-0.675-2.625-1.333
			c-1.866-1.482-2.8-3.722-2.8-6.719V51.61c0-1.152,0.201-2.239,0.601-3.261c0.398-1.02,0.981-1.909,1.75-2.667
			c1.499-1.482,3.365-2.272,5.599-2.371v5.483c-0.834,0.034-1.449,0.38-1.849,1.038c-0.37,0.561-0.551,1.5-0.551,2.816V70.63
			c0,2.042,0.799,3.162,2.399,3.36V79.473z M71.772,45.731c0.766,0.791,1.358,1.713,1.775,2.767c0.417,1.054,0.625,2.19,0.625,3.408
			v0.791h-5.55v-0.494c0-0.791-0.209-1.523-0.623-2.198c-0.42-0.675-1.025-1.079-1.826-1.211v-5.483
			C68.439,43.41,70.306,44.217,71.772,45.731z M68.623,70.086h5.55v1.038c0,1.054-0.218,2.092-0.65,3.112
			c-0.435,1.021-1.032,1.927-1.8,2.717c-0.734,0.758-1.575,1.351-2.524,1.778c-0.949,0.429-1.957,0.675-3.024,0.741V73.99
			c0.234-0.033,0.492-0.115,0.775-0.248c0.282-0.131,0.551-0.321,0.8-0.568c0.251-0.247,0.457-0.567,0.625-0.963
			c0.165-0.396,0.249-0.906,0.249-1.532V70.086z"/>
		<path d="M87.413,66.628l0.999,5.188h-5.547l-1.55,7.361h-5.549l7.497-33.248l2.3,11.51l-1.749,9.188H87.413z M90.913,79.177
			l-7.049-35.619h4.548l8.049,35.619H90.913z"/>
		<path d="M104,79.177h-5.549V43.558H104V79.177z M116.446,79.177h-5.849l-5.599-14.969v-4.693h1.2c1,0,1.767-0.115,2.298-0.346
			c0.535-0.229,0.927-0.568,1.176-1.012c0.251-0.445,0.399-0.996,0.449-1.655c0.051-0.658,0.076-1.416,0.076-2.272
			c0-0.791-0.018-1.499-0.051-2.124c-0.033-0.625-0.184-1.202-0.449-1.729c-0.467-1.087-1.567-1.63-3.299-1.63h-1.4v-5.187h1.301
			c1.532,0,2.823,0.206,3.873,0.618c1.05,0.412,2.007,1.061,2.875,1.951c0.432,0.461,0.799,0.931,1.1,1.408
			c0.299,0.478,0.551,1.03,0.749,1.655c0.2,0.626,0.342,1.343,0.425,2.149c0.082,0.807,0.126,1.753,0.126,2.84
			c0,0.758-0.018,1.441-0.051,2.05c-0.033,0.61-0.108,1.178-0.224,1.705c-0.118,0.527-0.276,1.038-0.475,1.531
			c-0.201,0.494-0.451,0.988-0.751,1.482c-0.834,1.384-1.967,2.372-3.398,2.964L116.446,79.177z"/>
		<path d="M124.096,79.177h-5.55V43.558h5.55V79.177z M133.092,46.077c1.601,1.647,2.401,3.92,2.401,6.817v16.451
			c0,3.261-0.852,5.731-2.549,7.41c-1.635,1.615-4.001,2.421-7.1,2.421h-0.749V73.99h1.1c1.331,0,2.291-0.321,2.873-0.964
			c0.583-0.642,0.874-1.705,0.874-3.187V52.895c0-1.415-0.266-2.453-0.798-3.112c-0.601-0.692-1.584-1.038-2.949-1.038h-1.1v-5.187
			h1.198c1.366,0,2.667,0.214,3.9,0.642C131.359,44.662,132.326,45.287,133.092,46.077z"/>
		<path d="M148.463,66.628l1,5.188h-5.549l-1.55,7.361h-5.548l7.497-33.248l2.301,11.51l-1.75,9.188H148.463z M151.964,79.177
			l-7.05-35.619h4.549l8.049,35.619H151.964z"/>
		<path d="M176.347,61.046l-5.149,12.4l-11.695-28.061v-1.827h5.248l6.447,16.994l5.149-13.684V61.046z M159.502,48.004l5.547,13.24
			v17.933h-5.547V48.004z M182.946,43.558v35.619h-5.551V58.576v0.05V44.15l0.201-0.592H182.946z"/>
		<path d="M193.888,79.473c-1.072-0.066-2.103-0.296-3.092-0.691c-0.989-0.396-1.87-0.964-2.641-1.705
			c-0.771-0.741-1.393-1.646-1.861-2.717c-0.469-1.07-0.703-2.297-0.703-3.681V52.104c0-1.383,0.234-2.61,0.703-3.681
			c0.469-1.07,1.09-1.976,1.861-2.717c0.771-0.741,1.651-1.309,2.641-1.705c0.989-0.395,2.02-0.625,3.092-0.691v5.483
			c-0.712,0.067-1.349,0.354-1.908,0.865c-0.561,0.511-0.84,1.326-0.84,2.446v18.575c0,1.087,0.279,1.886,0.84,2.396
			c0.56,0.511,1.196,0.815,1.908,0.914V79.473z M197.888,44.002c1,0.396,1.892,0.964,2.676,1.705
			c0.781,0.741,1.406,1.647,1.873,2.717c0.467,1.071,0.701,2.297,0.701,3.681v18.575c0,1.383-0.234,2.61-0.701,3.681
			c-0.467,1.071-1.092,1.976-1.873,2.717c-0.784,0.741-1.676,1.309-2.676,1.705c-0.999,0.395-2.016,0.625-3.049,0.691V73.99
			c0.699-0.099,1.332-0.403,1.898-0.914s0.85-1.31,0.85-2.396V52.104c0-1.12-0.283-1.935-0.85-2.446
			c-0.566-0.51-1.199-0.798-1.898-0.865v-5.483C195.872,43.377,196.889,43.607,197.888,44.002z"/>
		<path d="M222.484,61.046l-5.147,12.4L205.64,45.385v-1.827h5.25l6.447,16.994l5.147-13.684V61.046z M205.64,48.004l5.549,13.24
			v17.933h-5.549V48.004z M229.085,43.558v35.619h-5.55V58.576v0.05V44.15l0.2-0.592H229.085z"/>
		<path d="M240.026,79.473c-1.073-0.066-2.104-0.296-3.091-0.691c-0.99-0.396-1.87-0.964-2.643-1.705
			c-0.77-0.741-1.391-1.646-1.86-2.717c-0.469-1.07-0.704-2.297-0.704-3.681V52.104c0-1.383,0.235-2.61,0.704-3.681
			c0.47-1.07,1.091-1.976,1.86-2.717c0.772-0.741,1.652-1.309,2.643-1.705c0.987-0.395,2.018-0.625,3.091-0.691v5.483
			c-0.712,0.067-1.35,0.354-1.908,0.865c-0.56,0.511-0.84,1.326-0.84,2.446v18.575c0,1.087,0.28,1.886,0.84,2.396
			c0.559,0.511,1.196,0.815,1.908,0.914V79.473z M244.027,44.002c0.999,0.396,1.892,0.964,2.674,1.705
			c0.782,0.741,1.407,1.647,1.874,2.717c0.468,1.071,0.701,2.297,0.701,3.681v18.575c0,1.383-0.233,2.61-0.701,3.681
			c-0.467,1.071-1.092,1.976-1.874,2.717c-0.782,0.741-1.675,1.309-2.674,1.705c-1,0.395-2.017,0.625-3.049,0.691V73.99
			c0.698-0.099,1.331-0.403,1.898-0.914c0.565-0.511,0.85-1.31,0.85-2.396V52.104c0-1.12-0.284-1.935-0.85-2.446
			c-0.567-0.51-1.2-0.798-1.898-0.865v-5.483C242.011,43.377,243.027,43.607,244.027,44.002z"/>
	</g>
	<g>
		<path d="M63.837,91.681c-0.248-0.142-0.51-0.237-0.746-0.237c-0.629,0-1.173,0.759-1.363,1.624v3.188h-0.829v-5.451h0.651
			l0.095,1.197h0.048c0.226-0.734,0.723-1.375,1.564-1.375c0.295,0,0.687,0.119,0.829,0.273L63.837,91.681z"/>
		<path d="M72.668,92.641c0,0.26-0.034,0.581-0.105,0.711h-3.993v0.119c0,1.209,0.615,2.298,1.931,2.298
			c0.759,0,1.481-0.379,1.919-0.687l0.144,0.675c-0.415,0.261-1.208,0.64-2.157,0.64c-1.766,0-2.726-1.338-2.726-2.868
			c0-1.564,0.995-2.903,2.809-2.903C71.876,90.626,72.668,91.361,72.668,92.641z M68.652,92.723h3.234
			c0.012-0.07,0.012-0.142,0.012-0.213c0-0.806-0.687-1.221-1.445-1.221C69.423,91.29,68.854,91.906,68.652,92.723z"/>
		<path d="M77.734,92.06c0,0.32,0.154,0.7,0.9,0.866l0.842,0.189c1.326,0.297,1.54,1.031,1.54,1.529
			c0,0.983-0.816,1.753-2.157,1.753c-0.828,0-1.587-0.296-2.014-0.593l0.214-0.77c0.568,0.521,1.339,0.747,1.883,0.747
			c0.783,0,1.209-0.475,1.209-0.901c0-0.272-0.012-0.782-0.829-0.983l-1.138-0.285c-1.031-0.261-1.292-0.841-1.292-1.398
			c0-0.96,0.782-1.588,1.979-1.588c0.616,0,1.41,0.166,1.896,0.486l-0.225,0.711c-0.319-0.261-0.994-0.534-1.73-0.534
			C78.055,91.29,77.734,91.586,77.734,92.06z"/>
		<path d="M85.725,91.361h-0.913v-0.439l0.938-0.118l0.178-1.647h0.628v1.647h1.279v0.557h-1.279v3.78
			c0,0.509,0.143,0.616,0.462,0.616c0.357,0,0.652-0.13,0.865-0.285l0.167,0.628c-0.261,0.119-0.725,0.285-1.245,0.285
			c-1.007,0-1.079-0.64-1.079-1.221V91.361z"/>
		<path d="M95.684,96.255l-0.096-0.972H95.54c-0.378,0.593-1.303,1.114-2.204,1.114c-1.03,0-1.563-0.687-1.563-1.6
			c0-1.813,2.097-2.002,3.198-2.002h0.533v-0.142c0-0.594-0.178-0.877-0.486-1.09c-0.272-0.179-0.543-0.238-1.042-0.238
			c-0.663,0-1.139,0.189-1.61,0.474l-0.191-0.711c0.534-0.308,1.161-0.462,1.896-0.462c0.581,0,1.125,0.095,1.517,0.344
			c0.45,0.284,0.747,0.806,0.747,1.576v3.709H95.684z M95.505,94.501v-1.102h-0.106c-1.28,0-2.749,0.119-2.749,1.351
			c0,0.617,0.367,0.949,0.936,0.949C94.226,95.698,95.054,95.272,95.505,94.501z"/>
		<path d="M101.933,90.804v3.602c0,0.972,0.484,1.292,1.137,1.292c0.795,0,1.577-0.486,1.86-1.398v-3.496h0.83v5.451h-0.651
			l-0.095-1.019h-0.048c-0.201,0.664-0.96,1.161-2.014,1.161c-1.007,0-1.849-0.45-1.849-1.883v-3.709H101.933z"/>
		<path d="M113.586,91.681c-0.248-0.142-0.51-0.237-0.745-0.237c-0.629,0-1.174,0.759-1.364,1.624v3.188h-0.828v-5.451h0.651
			l0.094,1.197h0.048c0.226-0.734,0.723-1.375,1.564-1.375c0.296,0,0.688,0.119,0.829,0.273L113.586,91.681z"/>
		<path d="M121.376,96.255l-0.095-0.972h-0.048c-0.379,0.593-1.303,1.114-2.204,1.114c-1.031,0-1.563-0.687-1.563-1.6
			c0-1.813,2.097-2.002,3.199-2.002h0.533v-0.142c0-0.594-0.178-0.877-0.486-1.09c-0.272-0.179-0.545-0.238-1.042-0.238
			c-0.663,0-1.139,0.189-1.611,0.474l-0.19-0.711c0.534-0.308,1.161-0.462,1.896-0.462c0.581,0,1.125,0.095,1.517,0.344
			c0.449,0.284,0.746,0.806,0.746,1.576v3.709H121.376z M121.198,94.501v-1.102h-0.106c-1.28,0-2.75,0.119-2.75,1.351
			c0,0.617,0.368,0.949,0.937,0.949C119.919,95.698,120.747,95.272,121.198,94.501z"/>
		<path d="M130.683,96.255v-3.602c0-0.949-0.475-1.328-1.137-1.328c-0.795,0-1.576,0.521-1.862,1.434v3.496h-0.828v-5.451h0.651
			l0.094,1.02h0.049c0.2-0.665,0.959-1.198,2.015-1.198c1.007,0,1.849,0.486,1.849,1.92v3.709H130.683z"/>
		<path d="M136.602,91.361h-0.913v-0.439l0.936-0.118l0.179-1.647h0.628v1.647h1.28v0.557h-1.28v3.78
			c0,0.509,0.142,0.616,0.462,0.616c0.354,0,0.652-0.13,0.864-0.285l0.166,0.628c-0.26,0.119-0.722,0.285-1.243,0.285
			c-1.008,0-1.078-0.64-1.078-1.221V91.361z"/>
		<path d="M147.72,92.641c0,0.26-0.035,0.581-0.106,0.711h-3.993v0.119c0,1.209,0.615,2.298,1.932,2.298
			c0.758,0,1.481-0.379,1.919-0.687l0.143,0.675c-0.416,0.261-1.208,0.64-2.155,0.64c-1.767,0-2.728-1.338-2.728-2.868
			c0-1.564,0.995-2.903,2.81-2.903C146.925,90.626,147.72,91.361,147.72,92.641z M143.703,92.723h3.233
			c0.014-0.07,0.014-0.142,0.014-0.213c0-0.806-0.688-1.221-1.446-1.221C144.474,91.29,143.904,91.906,143.703,92.723z"/>
		<path d="M160.61,96.255h-1.057l-2.476-5.451h0.899l2.121,4.668l2.123-4.668h0.864L160.61,96.255z"/>
		<path d="M171.694,92.641c0,0.26-0.037,0.581-0.108,0.711h-3.992v0.119c0,1.209,0.615,2.298,1.932,2.298
			c0.759,0,1.481-0.379,1.921-0.687l0.14,0.675c-0.412,0.261-1.208,0.64-2.155,0.64c-1.766,0-2.727-1.338-2.727-2.868
			c0-1.564,0.995-2.903,2.81-2.903C170.899,90.626,171.694,91.361,171.694,92.641z M167.677,92.723h3.234
			c0.014-0.07,0.014-0.142,0.014-0.213c0-0.806-0.689-1.221-1.448-1.221C168.446,91.29,167.877,91.906,167.677,92.723z"/>
		<path d="M176.983,94.572c-0.746-0.296-1.066-1.03-1.066-1.777c0-1.221,0.854-2.169,2.229-2.169c0.414,0,0.842,0.083,1.137,0.237
			c0.652-0.012,1.245-0.071,1.742-0.213l0.06,0.047l-0.083,0.652l-0.06,0.059l-1.078-0.047l-0.012,0.036
			c0.403,0.332,0.592,0.936,0.592,1.434c0,1.042-0.792,1.955-2.252,1.955c-0.165,0-0.295-0.012-0.401-0.012
			c-0.331,0.106-0.498,0.332-0.498,0.462c0,0.154,0.201,0.285,0.676,0.333l1.148,0.118c1.033,0.106,1.86,0.64,1.86,1.587
			c0,0.462-0.2,0.984-0.616,1.328c-0.414,0.343-1.162,0.592-2.109,0.592c-1.622,0-2.559-0.723-2.559-1.576
			c0-0.628,0.533-1.268,1.137-1.493v-0.047c-0.309-0.143-0.486-0.356-0.486-0.617c0-0.332,0.286-0.593,0.641-0.841V94.572z
			 M176.534,97.476c0,0.604,0.687,0.983,1.777,0.983c1.042,0,1.838-0.355,1.838-1.066s-0.772-0.972-2.336-1.079
			C177.102,96.313,176.534,96.93,176.534,97.476z M179.58,92.831c0-0.735-0.511-1.588-1.46-1.588c-0.91,0-1.361,0.794-1.361,1.48
			c0,0.711,0.485,1.47,1.433,1.47C179.069,94.193,179.58,93.554,179.58,92.831z"/>
		<path d="M189.917,92.641c0,0.26-0.034,0.581-0.105,0.711h-3.995v0.119c0,1.209,0.618,2.298,1.932,2.298
			c0.758,0,1.482-0.379,1.92-0.687l0.144,0.675c-0.416,0.261-1.21,0.64-2.158,0.64c-1.766,0-2.725-1.338-2.725-2.868
			c0-1.564,0.996-2.903,2.808-2.903C189.124,90.626,189.917,91.361,189.917,92.641z M185.899,92.723h3.235
			c0.012-0.07,0.012-0.142,0.012-0.213c0-0.806-0.687-1.221-1.444-1.221C186.669,91.29,186.103,91.906,185.899,92.723z"/>
		<path d="M194.708,91.361h-0.911v-0.439l0.937-0.118l0.178-1.647h0.627v1.647h1.279v0.557h-1.279v3.78
			c0,0.509,0.144,0.616,0.464,0.616c0.355,0,0.65-0.13,0.864-0.285l0.166,0.628c-0.261,0.119-0.724,0.285-1.244,0.285
			c-1.008,0-1.08-0.64-1.08-1.221V91.361z"/>
		<path d="M204.666,96.255l-0.095-0.972h-0.048c-0.378,0.593-1.303,1.114-2.204,1.114c-1.029,0-1.563-0.687-1.563-1.6
			c0-1.813,2.098-2.002,3.199-2.002h0.533v-0.142c0-0.594-0.179-0.877-0.487-1.09c-0.271-0.179-0.543-0.238-1.042-0.238
			c-0.663,0-1.139,0.189-1.61,0.474l-0.189-0.711c0.532-0.308,1.159-0.462,1.895-0.462c0.581,0,1.126,0.095,1.517,0.344
			c0.45,0.284,0.748,0.806,0.748,1.576v3.709H204.666z M204.489,94.501v-1.102h-0.106c-1.279,0-2.75,0.119-2.75,1.351
			c0,0.617,0.368,0.949,0.937,0.949C203.21,95.698,204.039,95.272,204.489,94.501z"/>
		<path d="M213.084,91.681c-0.247-0.142-0.51-0.237-0.745-0.237c-0.629,0-1.174,0.759-1.364,1.624v3.188h-0.828v-5.451h0.65
			l0.095,1.197h0.049c0.225-0.734,0.724-1.375,1.564-1.375c0.296,0,0.688,0.119,0.828,0.273L213.084,91.681z"/>
		<path d="M217.829,88.197c0.32,0,0.616,0.296,0.616,0.616c0,0.332-0.296,0.592-0.616,0.592c-0.332,0-0.592-0.261-0.592-0.592
			C217.237,88.494,217.497,88.197,217.829,88.197z M218.244,96.255h-0.829v-5.451h0.829V96.255z"/>
		<path d="M226.589,96.255l-0.095-0.972h-0.046c-0.381,0.593-1.306,1.114-2.204,1.114c-1.033,0-1.565-0.687-1.565-1.6
			c0-1.813,2.098-2.002,3.2-2.002h0.531v-0.142c0-0.594-0.177-0.877-0.483-1.09c-0.274-0.179-0.547-0.238-1.044-0.238
			c-0.663,0-1.137,0.189-1.612,0.474l-0.188-0.711c0.533-0.308,1.162-0.462,1.896-0.462c0.581,0,1.127,0.095,1.517,0.344
			c0.451,0.284,0.746,0.806,0.746,1.576v3.709H226.589z M226.41,94.501v-1.102h-0.105c-1.279,0-2.75,0.119-2.75,1.351
			c0,0.617,0.368,0.949,0.938,0.949C225.131,95.698,225.961,95.272,226.41,94.501z"/>
		<path d="M235.896,96.255v-3.602c0-0.949-0.473-1.328-1.137-1.328c-0.795,0-1.576,0.521-1.86,1.434v3.496h-0.829v-5.451h0.652
			l0.094,1.02h0.047c0.202-0.665,0.961-1.198,2.015-1.198c1.007,0,1.849,0.486,1.849,1.92v3.709H235.896z"/>
		<path d="M246.72,93.565c0,1.541-0.842,2.832-2.713,2.832c-1.92,0-2.797-1.351-2.797-2.891c0-1.541,0.877-2.88,2.75-2.88
			C245.878,90.626,246.72,92.025,246.72,93.565z M245.844,93.577c0-1.197-0.593-2.287-1.92-2.287c-1.279,0-1.837,1.008-1.837,2.181
			c0,1.197,0.58,2.298,1.908,2.298C245.274,95.769,245.844,94.75,245.844,93.577z"/>
	</g>
</g>
</svg>
