<?xml version="1.0" encoding="UTF-8" standalone="no"?>
<svg
   xmlns:dc="http://purl.org/dc/elements/1.1/"
   xmlns:cc="http://creativecommons.org/ns#"
   xmlns:rdf="http://www.w3.org/1999/02/22-rdf-syntax-ns#"
   xmlns:svg="http://www.w3.org/2000/svg"
   xmlns="http://www.w3.org/2000/svg"
   id="svg8"
   version="1.1"
   viewBox="0 0 210 70"
   height="70mm"
   width="210mm">
  <defs
     id="defs2" />
  <metadata
     id="metadata5">
    <rdf:RDF>
      <cc:Work
         rdf:about="">
        <dc:format>image/svg+xml</dc:format>
        <dc:type
           rdf:resource="http://purl.org/dc/dcmitype/StillImage" />
        <dc:title></dc:title>
      </cc:Work>
    </rdf:RDF>
  </metadata>
  <g
     transform="translate(0,-227)"
     id="layer1">
    <g
       transform="matrix(1.9649842,0,0,1.9649842,-104.74686,-277.26446)"
       id="g900">
      <g
         id="g16"
         transform="matrix(0.35277777,0,0,-0.35277777,109.32006,266.02166)">
        <path
           d="m 0,0 -41.049,-46.291 -16.182,0.053 40.828,46.25"
           style="fill:#231f20;fill-opacity:1;fill-rule:nonzero;stroke:none"
           id="path18" />
      </g>
      <path
         d="m 112.86477,274.9716 h 13.2782 v -3.46781 h -13.2782 z"
         style="fill:#231f20;fill-opacity:1;fill-rule:nonzero;stroke:none;stroke-width:0.35277775"
         id="path20" />
      <g
         id="g22"
         transform="matrix(0.35277777,0,0,-0.35277777,65.974352,277.29693)">
        <path
           d="m 0,0 -3.667,-9.83 h 27.5 L 20.166,0 Z"
           style="fill:#231f20;fill-opacity:1;fill-rule:nonzero;stroke:none"
           id="path24" />
      </g>
      <path
         d="m 84.12431,261.3385 h -3.593395 v 3.62973 h 3.593395 z"
         style="fill:#231f20;fill-opacity:1;fill-rule:nonzero;stroke:none;stroke-width:0.35277775"
         id="path26" />
      <path
         d="m 138.4535,287.304 h -4.38891 v -3.89819 h 4.38891 z"
         style="fill:#231f20;fill-opacity:1;fill-rule:nonzero;stroke:none;stroke-width:0.35277775"
         id="path28" />
      <g
         id="g30"
         transform="matrix(0.35277777,0,0,-0.35277777,109.32006,261.31762)">
        <path
           d="m 0,0 h -60.217 v -10.289 l 49.788,0.012 L 0,-10.284 Z"
           style="fill:#231f20;fill-opacity:1;fill-rule:nonzero;stroke:none"
           id="path32" />
      </g>
      <g
         id="g34"
         transform="matrix(0.35277777,0,0,-0.35277777,110.74948,261.31762)">
        <path
           d="m 0,0 v -10.287 l 1.922,-0.002 H 54.161 V 0 Z"
           style="fill:#231f20;fill-opacity:1;fill-rule:nonzero;stroke:none"
           id="path36" />
      </g>
      <g
         id="g38"
         transform="matrix(0.35277777,0,0,-0.35277777,80.581397,287.32535)">
        <path
           d="M 0,0 H 10.311 V 51.852 H 0.024 V 11.111"
           style="fill:#231f20;fill-opacity:1;fill-rule:nonzero;stroke:none"
           id="path40" />
      </g>
      <g
         id="g42"
         transform="matrix(0.35277777,0,0,-0.35277777,104.61661,283.40567)">
        <path
           d="m 0,0 h -30.704 l -16.181,0.053 v -11.111 l 57.969,-0.026 z"
           style="fill:#231f20;fill-opacity:1;fill-rule:nonzero;stroke:none"
           id="path44" />
      </g>
      <g
         id="g46"
         transform="matrix(0.35277777,0,0,-0.35277777,106.63845,283.40567)">
        <path
           d="m 0,0 11.086,-11.086 54.728,-0.025 V 0 Z"
           style="fill:#231f20;fill-opacity:1;fill-rule:nonzero;stroke:none"
           id="path48" />
      </g>
      <g
         id="g50"
         transform="matrix(0.35277777,0,0,-0.35277777,139.8832,269.59918)">
        <path
           d="m 0,0 28.429,-43.93 v 18.351 L 0,17.313 Z"
           style="fill:#231f20;fill-opacity:1;fill-rule:nonzero;stroke:none"
           id="path52" />
      </g>
      <g
         id="g54"
         transform="matrix(0.35277777,0,0,-0.35277777,138.45361,261.33476)">
        <path
           d="m 0,0 -12.425,-0.007 -0.016,-55.01 H 0 v 28.135 9.717 z"
           style="fill:#231f20;fill-opacity:1;fill-rule:nonzero;stroke:none"
           id="path56" />
      </g>
      <g
         id="g58"
         transform="matrix(0.35277777,0,0,-0.35277777,151.33963,261.33476)">
        <path
           d="M 0,0 -0.011,-43.246 H 0.006 V -73.613 H 11.937 V 0.049 Z"
           style="fill:#231f20;fill-opacity:1;fill-rule:nonzero;stroke:none"
           id="path60" />
      </g>
      <g
         id="g62"
         transform="matrix(0.35277777,0,0,-0.35277777,66.745737,262.6181)">
        <path
           d="m 0,0 -25.846,-70.036 h 10.699 l 20.016,57.55 z"
           style="fill:#231f20;fill-opacity:1;fill-rule:nonzero;stroke:none"
           id="path64" />
      </g>
      <g
         id="g66"
         transform="matrix(0.35277777,0,0,-0.35277777,71.428472,261.3385)">
        <path
           d="m 0,0 h -10.338 l 6.116,-15.686 23.167,-57.977 h 2.805 v 21.272 z"
           style="fill:#231f20;fill-opacity:1;fill-rule:nonzero;stroke:none"
           id="path68" />
      </g>
    </g>
  </g>
</svg>
