<?xml version="1.0" encoding="UTF-8" standalone="no"?>
<!-- Generator: Adobe Illustrator 19.0.0, SVG Export Plug-In . SVG Version: 6.00 Build 0)  -->

<svg
   xmlns:dc="http://purl.org/dc/elements/1.1/"
   xmlns:cc="http://creativecommons.org/ns#"
   xmlns:rdf="http://www.w3.org/1999/02/22-rdf-syntax-ns#"
   xmlns:svg="http://www.w3.org/2000/svg"
   xmlns="http://www.w3.org/2000/svg"
   xmlns:sodipodi="http://sodipodi.sourceforge.net/DTD/sodipodi-0.dtd"
   xmlns:inkscape="http://www.inkscape.org/namespaces/inkscape"
   version="1.1"
   id="Capa_1"
   x="0px"
   y="0px"
   viewBox="0 0 30 30"
   xml:space="preserve"
   sodipodi:docname="blogger.svg"
   width="30"
   height="30"
   inkscape:version="0.92.4 (5da689c313, 2019-01-14)"><metadata
   id="metadata103"><rdf:RDF><cc:Work
       rdf:about=""><dc:format>image/svg+xml</dc:format><dc:type
         rdf:resource="http://purl.org/dc/dcmitype/StillImage" /><dc:title></dc:title></cc:Work></rdf:RDF></metadata><defs
   id="defs101" /><sodipodi:namedview
   pagecolor="#ffffff"
   bordercolor="#666666"
   borderopacity="1"
   objecttolerance="10"
   gridtolerance="10"
   guidetolerance="10"
   inkscape:pageopacity="0"
   inkscape:pageshadow="2"
   inkscape:window-width="1366"
   inkscape:window-height="705"
   id="namedview99"
   showgrid="false"
   inkscape:zoom="5.5625733"
   inkscape:cx="28.542763"
   inkscape:cy="8.4797949"
   inkscape:window-x="-8"
   inkscape:window-y="-8"
   inkscape:window-maximized="1"
   inkscape:current-layer="Capa_1" />
<g
   id="g6"
   transform="matrix(0.05557676,0,0,0.05557676,1.7977291,1.5254237)">
	<g
   id="g4">
		<path
   d="M 472,344 H 432 V 32 C 432,14.327 417.673,0 400,0 H 80 C 62.327,0 48,14.327 48,32 V 352 H 8 c -4.418,0 -8,3.582 -8,8 v 64 c 0,4.418 3.582,8 8,8 h 40 v 16 c 0,17.673 14.327,32 32,32 h 368 c 17.673,0 32,-14.327 32,-32 v -96 c 0,-4.418 -3.582,-8 -8,-8 z M 40,416 H 16 V 368 H 40 Z M 64,32 c 0,-8.837 7.163,-16 16,-16 h 320 c 8.837,0 16,7.163 16,16 V 64 H 64 Z m -8,384 v -48 h 16 v 48 z m 24,48 c -8.837,0 -16,-7.163 -16,-16 v -16 h 256 c 1.237,-0.022 2.452,-0.337 3.544,-0.92 v 0.08 l 64,-32 c 3.954,-1.971 5.562,-6.774 3.591,-10.729 -0.775,-1.556 -2.036,-2.816 -3.591,-3.591 l -64,-32 v 0.08 C 322.452,352.337 321.237,352.022 320,352 H 64 V 80 h 352 v 368 c 0.033,5.634 1.569,11.157 4.448,16 z m 232,-64 v 16 H 88 V 400 Z M 88,384 v -16 h 224 v 16 z m 240,27.056 V 372.944 L 366.112,392 Z M 464,448 c 0,8.837 -7.163,16 -16,16 -8.837,0 -16,-7.163 -16,-16 v -88 h 32 z"
   id="path2"
   inkscape:connector-curvature="0" />
	</g>
</g>
<g
   id="g12"
   transform="matrix(0.05557676,0,0,0.05557676,1.7977291,1.5254237)">
	<g
   id="g10">
		<path
   d="M 192,104 H 96 c -4.418,0 -8,3.582 -8,8 v 96 c 0,4.418 3.582,8 8,8 h 96 c 4.418,0 8,-3.582 8,-8 v -96 c 0,-4.418 -3.582,-8 -8,-8 z m -8,96 h -80 v -80 h 80 z"
   id="path8"
   inkscape:connector-curvature="0" />
	</g>
</g>
<g
   id="g18"
   transform="matrix(0.05557676,0,0,0.05557676,1.7977291,1.5254237)">
	<g
   id="g16">
		<rect
   x="224"
   y="136"
   width="168"
   height="16"
   id="rect14" />
	</g>
</g>
<g
   id="g24"
   transform="matrix(0.05557676,0,0,0.05557676,1.7977291,1.5254237)">
	<g
   id="g22">
		<rect
   x="224"
   y="168"
   width="168"
   height="16"
   id="rect20" />
	</g>
</g>
<g
   id="g30"
   transform="matrix(0.05557676,0,0,0.05557676,1.7977291,1.5254237)">
	<g
   id="g28">
		<rect
   x="224"
   y="200"
   width="136"
   height="16"
   id="rect26" />
	</g>
</g>
<g
   id="g36"
   transform="matrix(0.05557676,0,0,0.05557676,1.7977291,1.5254237)">
	<g
   id="g34">
		<rect
   x="288"
   y="104"
   width="104"
   height="16"
   id="rect32" />
	</g>
</g>
<g
   id="g42"
   transform="matrix(0.05557676,0,0,0.05557676,1.7977291,1.5254237)">
	<g
   id="g40">
		<path
   d="M 384,240 H 96 c -4.418,0 -8,3.582 -8,8 v 64 c 0,4.418 3.582,8 8,8 h 288 c 4.418,0 8,-3.582 8,-8 v -64 c 0,-4.418 -3.582,-8 -8,-8 z m -8,64 H 104 v -48 h 272 z"
   id="path38"
   inkscape:connector-curvature="0" />
	</g>
</g>
<g
   id="g48"
   transform="matrix(0.05557676,0,0,0.05557676,1.7977291,1.5254237)">
	<g
   id="g46">
		<rect
   x="256"
   y="104"
   width="16"
   height="16"
   id="rect44" />
	</g>
</g>
<g
   id="g54"
   transform="matrix(0.05557676,0,0,0.05557676,1.7977291,1.5254237)">
	<g
   id="g52">
		<rect
   x="80"
   y="32"
   width="16"
   height="16"
   id="rect50" />
	</g>
</g>
<g
   id="g60"
   transform="matrix(0.05557676,0,0,0.05557676,1.7977291,1.5254237)">
	<g
   id="g58">
		<rect
   x="112"
   y="32"
   width="16"
   height="16"
   id="rect56" />
	</g>
</g>
<g
   id="g66"
   transform="matrix(0.05557676,0,0,0.05557676,1.7977291,1.5254237)">
	<g
   id="g64">
		<rect
   x="144"
   y="32"
   width="16"
   height="16"
   id="rect62" />
	</g>
</g>
<g
   id="g68"
   transform="translate(0,-450)">
</g>
<g
   id="g70"
   transform="translate(0,-450)">
</g>
<g
   id="g72"
   transform="translate(0,-450)">
</g>
<g
   id="g74"
   transform="translate(0,-450)">
</g>
<g
   id="g76"
   transform="translate(0,-450)">
</g>
<g
   id="g78"
   transform="translate(0,-450)">
</g>
<g
   id="g80"
   transform="translate(0,-450)">
</g>
<g
   id="g82"
   transform="translate(0,-450)">
</g>
<g
   id="g84"
   transform="translate(0,-450)">
</g>
<g
   id="g86"
   transform="translate(0,-450)">
</g>
<g
   id="g88"
   transform="translate(0,-450)">
</g>
<g
   id="g90"
   transform="translate(0,-450)">
</g>
<g
   id="g92"
   transform="translate(0,-450)">
</g>
<g
   id="g94"
   transform="translate(0,-450)">
</g>
<g
   id="g96"
   transform="translate(0,-450)">
</g>
</svg>