<?xml version="1.0" encoding="UTF-8" standalone="no"?>
<!-- Generator: Adobe Illustrator 19.0.0, SVG Export Plug-In . SVG Version: 6.00 Build 0)  -->

<svg
   xmlns:dc="http://purl.org/dc/elements/1.1/"
   xmlns:cc="http://creativecommons.org/ns#"
   xmlns:rdf="http://www.w3.org/1999/02/22-rdf-syntax-ns#"
   xmlns:svg="http://www.w3.org/2000/svg"
   xmlns="http://www.w3.org/2000/svg"
   xmlns:sodipodi="http://sodipodi.sourceforge.net/DTD/sodipodi-0.dtd"
   xmlns:inkscape="http://www.inkscape.org/namespaces/inkscape"
   version="1.1"
   id="Capa_1"
   x="0px"
   y="0px"
   viewBox="0 0 30 30"
   xml:space="preserve"
   sodipodi:docname="contact.svg"
   width="30"
   height="30"
   inkscape:version="0.92.4 (5da689c313, 2019-01-14)"><metadata
   id="metadata51"><rdf:RDF><cc:Work
       rdf:about=""><dc:format>image/svg+xml</dc:format><dc:type
         rdf:resource="http://purl.org/dc/dcmitype/StillImage" /><dc:title></dc:title></cc:Work></rdf:RDF></metadata><defs
   id="defs49" /><sodipodi:namedview
   pagecolor="#ffffff"
   bordercolor="#666666"
   borderopacity="1"
   objecttolerance="10"
   gridtolerance="10"
   guidetolerance="10"
   inkscape:pageopacity="0"
   inkscape:pageshadow="2"
   inkscape:window-width="1366"
   inkscape:window-height="705"
   id="namedview47"
   showgrid="false"
   inkscape:zoom="2.6080981"
   inkscape:cx="-39.814525"
   inkscape:cy="2.9980438"
   inkscape:window-x="-8"
   inkscape:window-y="-8"
   inkscape:window-maximized="1"
   inkscape:current-layer="Capa_1" />
<g
   id="g14"
   transform="matrix(0.05073516,0,0,0.05073516,2.3015798,1.8362581)">
	<g
   id="g12">
		<g
   id="g10">
			<path
   d="M 490.114,12.813 H 132.568 c -12.012,0.014 -21.746,9.748 -21.76,21.76 v 98.62 L 94.458,108.668 C 86.974,97.379 71.923,93.992 60.325,100.988 l -33.638,20.224 c -11.016,6.464 -19.097,16.946 -22.545,29.244 -12.271,44.681 -3.166,121.66 109.824,234.667 89.855,89.762 156.85,113.937 203.024,113.937 10.69,0.049 21.339,-1.34 31.659,-4.13 12.293,-3.448 22.775,-11.518 29.252,-22.519 l 20.198,-33.673 c 6.968,-11.589 3.584,-26.609 -7.68,-34.091 l -80.546,-53.692 c -11.049,-7.308 -25.859,-4.905 -34.031,5.521 l -23.45,30.148 c -2.451,3.226 -6.897,4.166 -10.445,2.21 l -4.463,-2.458 c -14.686,-8.004 -32.964,-17.971 -69.879,-54.886 -3.994,-3.994 -7.612,-7.731 -11.008,-11.307 h 333.517 c 11.982,0.009 21.713,-9.676 21.76,-21.658 V 34.573 c -0.014,-12.012 -9.748,-21.746 -21.76,-21.76 z m -260.796,388.549 4.335,2.381 c 10.897,6.093 24.614,3.266 32.213,-6.639 l 23.45,-30.148 c 2.666,-3.396 7.49,-4.179 11.093,-1.801 l 80.546,53.692 c 3.659,2.439 4.759,7.321 2.5,11.093 l -20.198,33.673 c -4.218,7.233 -11.071,12.553 -19.123,14.848 C 303.797,489.554 233.201,480.168 126.056,373.015 18.911,265.862 9.56,195.273 20.627,154.97 c 2.293,-8.051 7.61,-14.903 14.839,-19.123 L 69.139,115.64 c 3.773,-2.254 8.652,-1.155 11.093,2.5 l 53.717,80.546 c 2.382,3.602 1.599,8.43 -1.801,11.093 l -30.157,23.458 c -9.903,7.597 -12.731,21.311 -6.639,32.205 l 2.389,4.335 c 8.533,15.65 19.14,35.123 57.805,73.779 38.666,38.657 58.131,49.272 73.772,57.806 z m 265.49,-102.836 c -0.028,2.567 -2.127,4.627 -4.693,4.608 H 141.203 C 130.12,290.46 120.563,276.53 112.727,261.628 l -2.458,-4.48 c -1.96,-3.54 -1.022,-7.982 2.202,-10.428 l 30.157,-23.458 c 10.43,-8.17 12.833,-22.982 5.521,-34.031 l -20.275,-30.43 V 34.573 c -0.014,-1.249 0.476,-2.451 1.359,-3.334 0.883,-0.883 2.085,-1.373 3.334,-1.359 h 357.547 c 1.249,-0.014 2.451,0.476 3.334,1.359 0.883,0.883 1.373,2.085 1.359,3.334 v 263.953 z"
   id="path2"
   inkscape:connector-curvature="0" />
			<path
   d="m 460.725,52.323 -142.618,108.16 c -4.035,2.932 -9.499,2.932 -13.534,0 L 162.008,52.323 c -3.756,-2.849 -9.111,-2.113 -11.959,1.643 -2.849,3.756 -2.113,9.111 1.643,11.959 l 142.583,108.151 c 10.144,7.494 23.989,7.494 34.133,0 L 471.034,65.925 c 1.805,-1.368 2.992,-3.398 3.299,-5.642 0.307,-2.244 -0.29,-4.518 -1.661,-6.321 -2.848,-3.749 -8.194,-4.482 -11.947,-1.639 z"
   id="path4"
   inkscape:connector-curvature="0" />
			<path
   d="m 238.517,174.793 -87.415,93.611 c -3.214,3.447 -3.025,8.848 0.422,12.062 3.447,3.214 8.848,3.025 12.062,-0.422 l 87.416,-93.653 c 2.888,-3.484 2.553,-8.617 -0.762,-11.698 -3.316,-3.081 -8.46,-3.037 -11.723,0.1 z"
   id="path6"
   inkscape:connector-curvature="0" />
			<path
   d="m 384.728,174.793 c -3.214,-3.447 -8.614,-3.637 -12.062,-0.422 -3.447,3.214 -3.637,8.614 -0.422,12.062 l 87.39,93.611 c 3.214,3.447 8.614,3.637 12.062,0.422 3.447,-3.214 3.637,-8.614 0.422,-12.062 z"
   id="path8"
   inkscape:connector-curvature="0" />
		</g>
	</g>
</g>
<g
   id="g16"
   transform="translate(0,-481.87399)">
</g>
<g
   id="g18"
   transform="translate(0,-481.87399)">
</g>
<g
   id="g20"
   transform="translate(0,-481.87399)">
</g>
<g
   id="g22"
   transform="translate(0,-481.87399)">
</g>
<g
   id="g24"
   transform="translate(0,-481.87399)">
</g>
<g
   id="g26"
   transform="translate(0,-481.87399)">
</g>
<g
   id="g28"
   transform="translate(0,-481.87399)">
</g>
<g
   id="g30"
   transform="translate(0,-481.87399)">
</g>
<g
   id="g32"
   transform="translate(0,-481.87399)">
</g>
<g
   id="g34"
   transform="translate(0,-481.87399)">
</g>
<g
   id="g36"
   transform="translate(0,-481.87399)">
</g>
<g
   id="g38"
   transform="translate(0,-481.87399)">
</g>
<g
   id="g40"
   transform="translate(0,-481.87399)">
</g>
<g
   id="g42"
   transform="translate(0,-481.87399)">
</g>
<g
   id="g44"
   transform="translate(0,-481.87399)">
</g>
</svg>