<?xml version="1.0" encoding="UTF-8" standalone="no"?>
<svg
   xmlns:dc="http://purl.org/dc/elements/1.1/"
   xmlns:cc="http://creativecommons.org/ns#"
   xmlns:rdf="http://www.w3.org/1999/02/22-rdf-syntax-ns#"
   xmlns:svg="http://www.w3.org/2000/svg"
   xmlns="http://www.w3.org/2000/svg"
   xmlns:sodipodi="http://sodipodi.sourceforge.net/DTD/sodipodi-0.dtd"
   xmlns:inkscape="http://www.inkscape.org/namespaces/inkscape"
   id="Capa_1"
   enable-background="new 0 0 512 512"
   height="30"
   viewBox="0 0 30 30"
   width="30"
   version="1.1"
   sodipodi:docname="cv.svg"
   inkscape:version="0.92.4 (5da689c313, 2019-01-14)">
  <metadata
     id="metadata35">
    <rdf:RDF>
      <cc:Work
         rdf:about="">
        <dc:format>image/svg+xml</dc:format>
        <dc:type
           rdf:resource="http://purl.org/dc/dcmitype/StillImage" />
        <dc:title></dc:title>
      </cc:Work>
    </rdf:RDF>
  </metadata>
  <defs
     id="defs33" />
  <sodipodi:namedview
     pagecolor="#ffffff"
     bordercolor="#666666"
     borderopacity="1"
     objecttolerance="10"
     gridtolerance="10"
     guidetolerance="10"
     inkscape:pageopacity="0"
     inkscape:pageshadow="2"
     inkscape:window-width="1366"
     inkscape:window-height="705"
     id="namedview31"
     showgrid="false"
     inkscape:zoom="7.375"
     inkscape:cx="13.103617"
     inkscape:cy="2.2396851"
     inkscape:window-x="-8"
     inkscape:window-y="-8"
     inkscape:window-maximized="1"
     inkscape:current-layer="Capa_1" />
  <g
     id="g28"
     transform="matrix(0.04915753,0,0,0.04915753,3.1444833,2.1194759)">
    <g
       id="g26">
      <path
         d="M 441.87,0 H 70.13 c -4.142,0 -7.5,3.357 -7.5,7.5 v 392.18 c 0,4.143 3.358,7.5 7.5,7.5 4.142,0 7.5,-3.357 7.5,-7.5 V 15 h 356.74 v 98.28 c 0,4.143 3.358,7.5 7.5,7.5 4.142,0 7.5,-3.357 7.5,-7.5 V 7.5 c 0,-4.143 -3.358,-7.5 -7.5,-7.5 z"
         id="path2"
         inkscape:connector-curvature="0" />
      <path
         d="m 441.87,140.78 c -4.142,0 -7.5,3.357 -7.5,7.5 v 247.703 h -93.517 c -4.142,0 -7.5,3.357 -7.5,7.5 V 497 H 77.63 v -62.32 c 0,-4.143 -3.358,-7.5 -7.5,-7.5 -4.142,0 -7.5,3.357 -7.5,7.5 v 69.82 c 0,4.143 3.358,7.5 7.5,7.5 h 270.72 c 1.989,0 3.897,-0.79 5.303,-2.196 l 101.02,-101.02 c 1.407,-1.407 2.197,-3.314 2.197,-5.304 v -255.2 c 0,-4.142 -3.358,-7.5 -7.5,-7.5 z m -18.109,270.203 -75.407,75.407 v -75.407 z"
         id="path4"
         inkscape:connector-curvature="0" />
      <path
         d="m 173.748,161.045 v 34.346 c 0,4.143 3.358,7.5 7.5,7.5 h 149.504 c 4.142,0 7.5,-3.357 7.5,-7.5 v -34.346 c 0,-26.278 -21.269,-47.673 -47.494,-47.896 8.14,-8.591 13.149,-20.177 13.149,-32.918 0,-26.416 -21.491,-47.906 -47.907,-47.906 -26.416,0 -47.907,21.49 -47.907,47.906 0,12.741 5.009,24.327 13.149,32.918 -26.225,0.223 -47.494,21.618 -47.494,47.896 z M 256,47.325 c 18.145,0 32.907,14.762 32.907,32.906 0,18.146 -14.762,32.907 -32.907,32.907 -18.145,0 -32.907,-14.762 -32.907,-32.907 0,-18.144 14.762,-32.906 32.907,-32.906 z m -67.252,113.72 c 0,-18.145 14.762,-32.906 32.906,-32.906 h 68.691 c 18.145,0 32.906,14.762 32.906,32.906 v 26.846 h -27.427 v -12.704 c 0,-4.143 -3.358,-7.5 -7.5,-7.5 -4.142,0 -7.5,3.357 -7.5,7.5 v 12.704 h -49.65 v -12.704 c 0,-4.143 -3.358,-7.5 -7.5,-7.5 -4.142,0 -7.5,3.357 -7.5,7.5 v 12.704 h -27.427 v -26.846 z"
         id="path6"
         inkscape:connector-curvature="0" />
      <path
         d="m 157.59,227.72 v 32.32 c 0,4.143 3.358,7.5 7.5,7.5 h 34.5 c 4.142,0 7.5,-3.357 7.5,-7.5 0,-4.143 -3.358,-7.5 -7.5,-7.5 h -27 v -17.32 h 166.82 v 17.32 H 234.59 c -4.142,0 -7.5,3.357 -7.5,7.5 0,4.143 3.358,7.5 7.5,7.5 h 112.32 c 4.142,0 7.5,-3.357 7.5,-7.5 v -32.32 c 0,-4.143 -3.358,-7.5 -7.5,-7.5 H 165.09 c -4.142,0 -7.5,3.357 -7.5,7.5 z"
         id="path8"
         inkscape:connector-curvature="0" />
      <path
         d="M 409.545,284.866 H 177.208 c -4.142,0 -7.5,3.357 -7.5,7.5 0,4.143 3.358,7.5 7.5,7.5 h 232.337 c 4.142,0 7.5,-3.357 7.5,-7.5 0,-4.143 -3.358,-7.5 -7.5,-7.5 z"
         id="path10"
         inkscape:connector-curvature="0" />
      <path
         d="m 102.455,299.866 h 42.427 c 4.142,0 7.5,-3.357 7.5,-7.5 0,-4.143 -3.358,-7.5 -7.5,-7.5 h -42.427 c -4.142,0 -7.5,3.357 -7.5,7.5 0,4.143 3.358,7.5 7.5,7.5 z"
         id="path12"
         inkscape:connector-curvature="0" />
      <path
         d="m 102.455,332.191 h 42.427 c 4.142,0 7.5,-3.357 7.5,-7.5 0,-4.143 -3.358,-7.5 -7.5,-7.5 h -42.427 c -4.142,0 -7.5,3.357 -7.5,7.5 0,4.143 3.358,7.5 7.5,7.5 z"
         id="path14"
         inkscape:connector-curvature="0" />
      <path
         d="M 409.545,317.191 H 177.208 c -4.142,0 -7.5,3.357 -7.5,7.5 0,4.143 3.358,7.5 7.5,7.5 h 232.337 c 4.142,0 7.5,-3.357 7.5,-7.5 0,-4.143 -3.358,-7.5 -7.5,-7.5 z"
         id="path16"
         inkscape:connector-curvature="0" />
      <path
         d="m 102.455,364.517 h 42.427 c 4.142,0 7.5,-3.357 7.5,-7.5 0,-4.143 -3.358,-7.5 -7.5,-7.5 h -42.427 c -4.142,0 -7.5,3.357 -7.5,7.5 0,4.143 3.358,7.5 7.5,7.5 z"
         id="path18"
         inkscape:connector-curvature="0" />
      <path
         d="M 409.545,349.517 H 177.208 c -4.142,0 -7.5,3.357 -7.5,7.5 0,4.143 3.358,7.5 7.5,7.5 h 232.337 c 4.142,0 7.5,-3.357 7.5,-7.5 0,-4.143 -3.358,-7.5 -7.5,-7.5 z"
         id="path20"
         inkscape:connector-curvature="0" />
      <path
         d="m 102.455,410.983 h 80.813 c 4.142,0 7.5,-3.357 7.5,-7.5 0,-4.143 -3.358,-7.5 -7.5,-7.5 h -80.813 c -4.142,0 -7.5,3.357 -7.5,7.5 0,4.143 3.358,7.5 7.5,7.5 z"
         id="path22"
         inkscape:connector-curvature="0" />
      <path
         d="m 112.557,442.451 c -4.142,0 -7.5,3.357 -7.5,7.5 0,4.143 3.358,7.5 7.5,7.5 h 60.609 c 4.142,0 7.5,-3.357 7.5,-7.5 0,-4.143 -3.358,-7.5 -7.5,-7.5 z"
         id="path24"
         inkscape:connector-curvature="0" />
    </g>
  </g>
</svg>
