<?xml version="1.0" encoding="UTF-8" standalone="no"?>
<svg
   xmlns:dc="http://purl.org/dc/elements/1.1/"
   xmlns:cc="http://creativecommons.org/ns#"
   xmlns:rdf="http://www.w3.org/1999/02/22-rdf-syntax-ns#"
   xmlns:svg="http://www.w3.org/2000/svg"
   xmlns="http://www.w3.org/2000/svg"
   xmlns:sodipodi="http://sodipodi.sourceforge.net/DTD/sodipodi-0.dtd"
   xmlns:inkscape="http://www.inkscape.org/namespaces/inkscape"
   id="light"
   enable-background="new 0 0 24 24"
   height="30"
   viewBox="0 0 1.40625 1.40625"
   width="30"
   version="1.1"
   sodipodi:docname="portfolio.svg"
   inkscape:version="0.92.4 (5da689c313, 2019-01-14)">
  <metadata
     id="metadata19">
    <rdf:RDF>
      <cc:Work
         rdf:about="">
        <dc:format>image/svg+xml</dc:format>
        <dc:type
           rdf:resource="http://purl.org/dc/dcmitype/StillImage" />
        <dc:title></dc:title>
      </cc:Work>
    </rdf:RDF>
  </metadata>
  <defs
     id="defs17" />
  <sodipodi:namedview
     pagecolor="#ffffff"
     bordercolor="#666666"
     borderopacity="1"
     objecttolerance="10"
     gridtolerance="10"
     guidetolerance="10"
     inkscape:pageopacity="0"
     inkscape:pageshadow="2"
     inkscape:window-width="1366"
     inkscape:window-height="705"
     id="namedview15"
     showgrid="false"
     inkscape:zoom="2.6074563"
     inkscape:cx="15.299171"
     inkscape:cy="-22.736107"
     inkscape:window-x="-8"
     inkscape:window-y="-8"
     inkscape:window-maximized="1"
     inkscape:current-layer="light" />
  <g
     id="g4"
     transform="matrix(0.0498222,0,0,0.0498222,0.10056761,0.04290292)">
    <path
       d="M 21.5,22 H 2.5 C 1.1,22 0,20.9 0,19.5 V 7.5 C 0,6.1 1.1,5 2.5,5 h 19 C 22.9,5 24,6.1 24,7.5 v 12 C 24,20.9 22.9,22 21.5,22 Z M 2.5,6 C 1.7,6 1,6.7 1,7.5 v 12 C 1,20.3 1.7,21 2.5,21 h 19 C 22.3,21 23,20.3 23,19.5 V 7.5 C 23,6.7 22.3,6 21.5,6 Z"
       id="path2"
       inkscape:connector-curvature="0" />
  </g>
  <g
     id="g8"
     transform="matrix(0.0498222,0,0,0.0498222,0.10056761,0.04290292)">
    <path
       d="M 15.5,6 C 15.2,6 15,5.8 15,5.5 v -2 C 15,3.2 14.8,3 14.5,3 h -5 C 9.2,3 9,3.2 9,3.5 v 2 C 9,5.8 8.8,6 8.5,6 8.2,6 8,5.8 8,5.5 v -2 C 8,2.7 8.7,2 9.5,2 h 5 C 15.3,2 16,2.7 16,3.5 v 2 C 16,5.8 15.8,6 15.5,6 Z"
       id="path6"
       inkscape:connector-curvature="0" />
  </g>
  <g
     id="g12"
     transform="matrix(0.0498222,0,0,0.0498222,0.10056761,0.04290292)">
    <path
       d="m 12,14 c -0.1,0 -0.1,0 -0.2,0 L 0.3,10 C 0.1,9.9 -0.1,9.6 0,9.3 0.1,9.1 0.4,8.9 0.7,9 L 12,13 23.3,9 c 0.3,-0.1 0.5,0 0.6,0.3 0.1,0.3 0,0.5 -0.3,0.6 l -11.5,4 c 0,0.1 0,0.1 -0.1,0.1 z"
       id="path10"
       inkscape:connector-curvature="0" />
  </g>
</svg>
