<?xml version="1.0" encoding="UTF-8" standalone="no"?>
<!-- Generator: Adobe Illustrator 19.0.0, SVG Export Plug-In . SVG Version: 6.00 Build 0)  -->

<svg
   xmlns:dc="http://purl.org/dc/elements/1.1/"
   xmlns:cc="http://creativecommons.org/ns#"
   xmlns:rdf="http://www.w3.org/1999/02/22-rdf-syntax-ns#"
   xmlns:svg="http://www.w3.org/2000/svg"
   xmlns="http://www.w3.org/2000/svg"
   xmlns:sodipodi="http://sodipodi.sourceforge.net/DTD/sodipodi-0.dtd"
   xmlns:inkscape="http://www.inkscape.org/namespaces/inkscape"
   version="1.1"
   id="Layer_1"
   x="0px"
   y="0px"
   viewBox="0 0 434.147 434.147"
   style="enable-background:new 0 0 434.147 434.147;"
   xml:space="preserve"
   sodipodi:docname="JS.svg"
   inkscape:version="0.92.4 (5da689c313, 2019-01-14)"><metadata
   id="metadata39"><rdf:RDF><cc:Work
       rdf:about=""><dc:format>image/svg+xml</dc:format><dc:type
         rdf:resource="http://purl.org/dc/dcmitype/StillImage" /><dc:title></dc:title></cc:Work></rdf:RDF></metadata><defs
   id="defs37" /><sodipodi:namedview
   pagecolor="#ffffff"
   bordercolor="#666666"
   borderopacity="1"
   objecttolerance="10"
   gridtolerance="10"
   guidetolerance="10"
   inkscape:pageopacity="0"
   inkscape:pageshadow="2"
   inkscape:window-width="1366"
   inkscape:window-height="705"
   id="namedview35"
   showgrid="false"
   inkscape:zoom="0.54359468"
   inkscape:cx="-11.957439"
   inkscape:cy="217.0735"
   inkscape:window-x="-8"
   inkscape:window-y="-8"
   inkscape:window-maximized="1"
   inkscape:current-layer="Layer_1" />
<path
   style="fill:#000000;fill-opacity:1"
   clip-path="none"
   d="M 40.628906 0 C 32.855906 0 26.730938 6.6210938 27.335938 14.371094 L 55.513672 374.8457 C 55.936672 380.2587 59.599391 384.87462 64.775391 386.51562 L 213.04492 433.52344 C 215.66692 434.35444 218.48152 434.35444 221.10352 433.52344 L 369.37109 386.51562 C 374.54709 384.87462 378.21177 380.2587 378.63477 374.8457 L 406.81055 14.371094 C 407.41655 6.6210938 401.29253 0 393.51953 0 L 40.628906 0 z M 273.43164 80.658203 C 280.21328 80.658203 286.35294 81.391122 291.85156 82.857422 C 297.44183 84.323722 302.11565 86.250075 305.87305 88.632812 C 309.72208 91.01555 313.06725 94.039329 315.9082 97.705078 C 318.8408 101.27918 321.13166 104.8987 322.78125 108.56445 C 324.52248 112.13856 325.94324 116.21664 327.04297 120.79883 C 328.23434 125.28937 329.01428 129.41253 329.38086 133.16992 C 329.83908 136.92732 330.16046 140.96032 330.34375 145.26758 L 286.76562 150.9043 C 286.67398 147.05526 286.5368 143.89235 286.35352 141.41797 C 286.26187 138.85194 286.03259 136.14955 285.66602 133.30859 C 285.29944 130.46764 284.7958 128.17678 284.1543 126.43555 C 283.51279 124.69432 282.64269 123.08935 281.54297 121.62305 C 280.53489 120.0651 279.20623 118.96572 277.55664 118.32422 C 275.9987 117.68271 274.11937 117.40836 271.91992 117.5 C 267.52102 117.59164 264.13078 119.47097 261.74805 123.13672 C 259.45695 126.71082 258.31055 130.74188 258.31055 135.23242 C 258.31055 139.53968 258.81418 143.48058 259.82227 147.05469 C 260.92199 150.53715 262.75624 153.92739 265.32227 157.22656 C 267.97993 160.52574 270.13362 163.0008 271.7832 164.65039 C 273.43279 166.29998 276.18221 168.86519 280.03125 172.34766 L 299.41211 189.39453 C 304.72745 194.16001 309.31112 198.74173 313.16016 203.14062 C 317.00919 207.44788 320.67379 212.39606 324.15625 217.98633 C 327.63871 223.48495 330.25096 229.57954 331.99219 236.26953 C 333.82506 242.86788 334.74219 249.97169 334.74219 257.57812 C 334.74219 274.074 329.24334 287.77408 318.24609 298.67969 C 307.24885 309.49365 292.81389 314.90039 274.94336 314.90039 C 253.31544 314.90039 237.18731 309.17226 226.55664 297.7168 C 216.01761 286.16969 210.33456 267.79578 209.50977 242.59375 L 252.67383 235.99414 C 252.85712 250.29056 254.55419 260.69251 257.76172 267.19922 C 261.06089 273.61428 265.964 276.82227 272.4707 276.82227 C 280.99357 276.82227 285.25391 271.32342 285.25391 260.32617 C 285.25391 254.18604 284.15453 248.55002 281.95508 243.41797 C 279.75563 238.19428 277.05128 233.74973 273.84375 230.08398 C 270.63622 226.41823 266.1466 222.11087 260.37305 217.16211 L 240.16602 199.70508 C 235.3089 195.48947 231.27589 191.63871 228.06836 188.15625 C 224.86083 184.67379 221.69987 180.55063 218.58398 175.78516 C 215.55974 170.92804 213.31396 165.56637 211.84766 159.70117 C 210.38136 153.83597 209.64844 147.37493 209.64844 140.31836 C 209.64844 121.34811 215.32954 106.68582 226.69336 96.330078 C 238.05718 85.974336 253.63659 80.749847 273.43164 80.658203 z M 130.33008 83.820312 L 180.64258 83.820312 L 180.64258 261.01367 C 180.45929 270.81955 179.49709 279.06782 177.75586 285.75781 C 176.10627 292.35616 173.26475 298.12936 169.23242 303.07812 C 165.29174 307.93524 159.885 311.50969 153.01172 313.80078 C 146.13844 316.09187 137.57074 317.23633 127.30664 317.23633 L 102.83789 317.23633 L 102.83789 282.18359 L 104.625 282.18359 C 114.33924 282.27524 120.98253 280.85447 124.55664 277.92188 C 128.40568 274.80599 130.33008 268.52915 130.33008 259.08984 L 130.33008 83.820312 z "
   id="path2" />
<g
   id="g4">
</g>
<g
   id="g6">
</g>
<g
   id="g8">
</g>
<g
   id="g10">
</g>
<g
   id="g12">
</g>
<g
   id="g14">
</g>
<g
   id="g16">
</g>
<g
   id="g18">
</g>
<g
   id="g20">
</g>
<g
   id="g22">
</g>
<g
   id="g24">
</g>
<g
   id="g26">
</g>
<g
   id="g28">
</g>
<g
   id="g30">
</g>
<g
   id="g32">
</g>
</svg>